#N canvas 827 239 527 327 12;
#X obj 424 24 inlet drywet;
#X obj 27 199 *~;
#X obj 27 24 inlet~ dry-left;
#X obj 123 24 inlet~ dry-right;
#X obj 224 24 inlet~ wet-left;
#X obj 320 24 inlet~ wet-right;
#X obj 76 199 *~;
#X obj 27 243 +~;
#X obj 27 301 outlet~ left;
#X obj 125 199 *~;
#X obj 174 199 *~;
#X obj 125 243 +~;
#X obj 125 301 outlet~ right;
#X obj 424 53 / 100;
#X obj 424 102 scale 0 1 1 0;
#X connect 0 0 13 0;
#X connect 1 0 7 0;
#X connect 2 0 1 0;
#X connect 3 0 9 0;
#X connect 4 0 6 0;
#X connect 5 0 10 0;
#X connect 6 0 7 1;
#X connect 7 0 8 0;
#X connect 9 0 11 0;
#X connect 10 0 11 1;
#X connect 11 0 12 0;
#X connect 13 0 6 1;
#X connect 13 0 10 1;
#X connect 13 0 14 0;
#X connect 14 0 1 1;
#X connect 14 0 9 1;
