#N canvas 827 239 550 322 12;
#X obj 261 334 adc~;
#X obj 200 513 +~, f 5;
#X obj 200 548 /~, f 5;
#X obj 244 513 nbx 2 18 -1e+37 1e+37 0 1 empty empty empty 0 -8 0 10 #e4e4e4 #373737 #373737 2 256;
#X obj 304 513 -~;
#X obj 28 250 hsl 150 25 0 2 0 1 empty wl empty -2 -8 0 10 #e4e4e4 #4d4d4d #373737 7450 1;
#X obj 304 548 *~;
#X obj 244 755 dac~;
#X obj 495 15 bng 25 250 50 0 empty empty Reset -36 14 0 10 #e4e4e4 #4d4d4d #373737;
#X msg 577 66 1;
#X obj 574 108 send wl;
#X obj 200 614 -~;
#X obj 304 614 +~;
#X obj 200 75 scope~ 150 150 2 3 256 -1 1 0 0 0 0 77 108 77 228 255 228 183 210 183 0 empty;
#X obj 375 75 scope~ 150 150 2 3 256 -1 1 0 0 0 0 77 77 108 228 228 255 183 183 210 0 empty;
#X obj 128 15 hsl 128 25 50 500 0 1 empty flp empty -2 -8 0 10 #e4e4e4 #4d4d4d #373737 0 1;
#X obj 306 15 hsl 128 25 1500 7500 0 1 empty fhp empty -2 -8 0 10 #e4e4e4 #4d4d4d #373737 0 1;
#X obj 163 48 nbx 4 18 50 500 0 1 empty empty empty 0 -8 0 10 #e4e4e4 #373737 #373737 50 256;
#X obj 336 49 nbx 4 18 1500 7500 0 1 empty empty empty 0 -8 0 10 #e4e4e4 #373737 #373737 1500 256;
#X obj 203 250 hsl 150 25 0 2 0 1 empty wm empty -2 -8 0 10 #e4e4e4 #4d4d4d #373737 7450 1;
#X obj 669 108 send wm;
#X obj 372 250 hsl 150 25 0 2 0 1 empty wh empty -2 -8 0 10 #e4e4e4 #4d4d4d #373737 7450 1;
#X obj 746 108 send wh;
#X msg 577 167 150;
#X obj 577 208 send flp;
#X msg 753 167 4500;
#X obj 753 206 send fhp;
#X obj 577 24 loadbang;
#X obj 77 283 nbx 4 18 0 2 0 1 empty empty empty 0 -8 0 10 #e4e4e4 #373737 #373737 1 256;
#X obj 254 285 nbx 4 18 0 2 0 1 empty empty empty 0 -8 0 10 #e4e4e4 #373737 #373737 1 256;
#X obj 426 285 nbx 4 18 0 2 0 1 empty empty empty 0 -8 0 10 #e4e4e4 #373737 #373737 1 256;
#X obj 24 384 lowpass~;
#X obj 387 377 highpass~;
#X obj 107 384 lowpass~;
#X obj 469 377 highpass~;
#X obj 25 75 scope~ 150 150 2 3 256 -1 1 0 0 0 0 108 77 77 255 228 228 210 183 183 0 empty;
#X obj 239 422 -~;
#X obj 35 513 +~, f 5;
#X obj 35 548 /~, f 5;
#X obj 79 513 nbx 2 18 -1e+37 1e+37 0 1 empty empty empty 0 -8 0 10 #e4e4e4 #373737 #373737 2 256;
#X obj 139 513 -~;
#X obj 139 548 *~;
#X obj 35 614 -~;
#X obj 139 614 +~;
#X obj 387 513 +~, f 5;
#X obj 387 548 /~, f 5;
#X obj 431 513 nbx 2 18 -1e+37 1e+37 0 1 empty empty empty 0 -8 0 10 #e4e4e4 #373737 #373737 2 256;
#X obj 491 513 -~;
#X obj 491 548 *~;
#X obj 387 614 -~;
#X obj 491 614 +~;
#X obj 217 460 -~;
#X obj 287 422 -~;
#X obj 304 460 -~;
#X obj 174 674 +~;
#X obj 217 707 +~;
#X obj 327 674 +~;
#X obj 304 707 +~;
#X obj 642 66 param low-width 1;
#X obj 770 66 param mid-width 1;
#X obj 905 66 param high-width 1;
#X obj 622 167 param low-split 1;
#X obj 821 167 param high-split 1;
#X obj 548 473 loadbang;
#X msg 226 48 set \$1;
#X msg 399 49 set \$1;
#X msg 137 283 set \$1;
#X msg 323 284 set \$1;
#X msg 484 285 set \$1;
#X connect 0 0 31 0;
#X connect 0 0 32 0;
#X connect 0 0 36 0;
#X connect 0 1 33 0;
#X connect 0 1 34 0;
#X connect 0 1 52 0;
#X connect 1 0 2 0;
#X connect 2 0 11 0;
#X connect 2 0 12 0;
#X connect 2 0 13 1;
#X connect 3 0 2 1;
#X connect 4 0 6 0;
#X connect 5 0 28 0;
#X connect 5 0 41 1;
#X connect 6 0 11 1;
#X connect 6 0 12 1;
#X connect 6 0 13 0;
#X connect 8 0 9 0;
#X connect 8 0 23 0;
#X connect 8 0 25 0;
#X connect 9 0 10 0;
#X connect 9 0 20 0;
#X connect 9 0 22 0;
#X connect 9 0 58 0;
#X connect 9 0 59 0;
#X connect 9 0 60 0;
#X connect 11 0 54 1;
#X connect 12 0 56 1;
#X connect 15 0 17 0;
#X connect 15 0 31 1;
#X connect 15 0 33 1;
#X connect 16 0 18 0;
#X connect 16 0 32 1;
#X connect 16 0 34 1;
#X connect 17 0 64 0;
#X connect 18 0 65 0;
#X connect 19 0 29 0;
#X connect 19 0 6 1;
#X connect 21 0 30 0;
#X connect 21 0 48 1;
#X connect 23 0 24 0;
#X connect 23 0 61 0;
#X connect 25 0 26 0;
#X connect 25 0 62 0;
#X connect 27 0 8 0;
#X connect 28 0 66 0;
#X connect 29 0 67 0;
#X connect 30 0 68 0;
#X connect 31 0 37 0;
#X connect 31 0 40 1;
#X connect 31 0 51 1;
#X connect 32 0 36 1;
#X connect 32 0 44 0;
#X connect 32 0 47 1;
#X connect 33 0 37 1;
#X connect 33 0 40 0;
#X connect 33 0 53 1;
#X connect 34 0 44 1;
#X connect 34 0 47 0;
#X connect 34 0 52 1;
#X connect 36 0 51 0;
#X connect 37 0 38 0;
#X connect 38 0 42 0;
#X connect 38 0 43 0;
#X connect 38 0 35 1;
#X connect 39 0 38 1;
#X connect 40 0 41 0;
#X connect 41 0 42 1;
#X connect 41 0 43 1;
#X connect 41 0 35 0;
#X connect 42 0 54 0;
#X connect 43 0 56 0;
#X connect 44 0 45 0;
#X connect 45 0 49 0;
#X connect 45 0 50 0;
#X connect 45 0 14 1;
#X connect 46 0 45 1;
#X connect 47 0 48 0;
#X connect 48 0 49 1;
#X connect 48 0 50 1;
#X connect 48 0 14 0;
#X connect 49 0 55 1;
#X connect 50 0 57 1;
#X connect 51 0 1 0;
#X connect 51 0 4 1;
#X connect 52 0 53 0;
#X connect 53 0 1 1;
#X connect 53 0 4 0;
#X connect 54 0 55 0;
#X connect 55 0 7 0;
#X connect 56 0 57 0;
#X connect 57 0 7 1;
#X connect 58 0 10 0;
#X connect 59 0 20 0;
#X connect 60 0 22 0;
#X connect 61 0 24 0;
#X connect 62 0 26 0;
#X connect 63 0 39 0;
#X connect 63 0 3 0;
#X connect 63 0 46 0;
#X connect 64 0 15 0;
#X connect 65 0 16 0;
#X connect 66 0 5 0;
#X connect 67 0 19 0;
#X connect 68 0 21 0;
