#N canvas 827 239 327 322 12;
#X obj 49 349 adc~;
#X obj 24 24 scope~ 200 200 2 3 256 -1 1 0 0 0 0 77 77 77 228 228 228 183 183 183 0 empty;
#X obj 27 247 hsl 200 25 0 2 0 1 empty wl empty -2 -8 0 10 #e4e4e4 #4d4d4d #373737 9950 1;
#X obj 49 449 dac~;
#X obj 280 24 bng 25 250 50 0 empty empty Reset -32 14 0 10 #e4e4e4 #4d4d4d #373737;
#X msg 349 74 1;
#X obj 346 107 send wl;
#X obj 351 24 loadbang;
#X obj 49 400 wico;
#X obj 103 287 nbx 4 18 -1e+37 1e+37 0 0 empty empty empty 0 -8 0 10 #e4e4e4 #373737 #373737 0 256;
#X msg 169 284 set \$1;
#X obj 415 78 param width 1;
#X connect 0 0 8 0;
#X connect 0 1 8 1;
#X connect 2 0 9 0;
#X connect 2 0 8 2;
#X connect 4 0 5 0;
#X connect 5 0 6 0;
#X connect 5 0 11 0;
#X connect 7 0 4 0;
#X connect 8 0 3 0;
#X connect 8 1 1 1;
#X connect 8 2 3 1;
#X connect 8 3 1 0;
#X connect 9 0 10 0;
#X connect 10 0 2 0;
#X connect 11 0 6 0;
