#N canvas 827 239 327 322 12;
#X obj 250 0 cnv 15 75 322 empty empty empty 20 12 0 14 #ebebeb #373737 0;
#X obj 49 349 adc~;
#X obj 24 24 scope~ 200 200 2 3 256 -1 1 0 0 0 0 77 77 77 228 228 228 183 183 183 0 sc;
#X obj 31 247 hsl 200 25 0 200 0 1 empty wl empty -2 -8 0 10 #e4e4e4 #4d4d4d #373737 9950 1;
#X obj 49 500 dac~;
#X obj 280 24 bng 25 250 50 0 empty empty Reset -3 40 0 12 #e4e4e4 #4d4d4d #373737;
#X obj 346 114 send wl;
#X obj 351 24 loadbang;
#X obj 49 400 wico;
#X obj 105 285 nbx 3 18 0 200 0 0 empty empty % 49 10 0 12 #e4e4e4 #373737 #373737 0 256;
#X msg 181 284 set \$1;
#X obj 425 74 param width 1;
#X text 24 22 L;
#X text 209 22 R;
#X obj 263 247 knob 50 0 100 0 100 empty dw #E4E4E4 #B7B7B7 #4D4D4D 1 0 0 0 1 270 0 0 0;
#X obj 782 152 knob 50 0 100 0 100 empty empty #E4E4E4 #B7B7B7 #4D4D4D 1 0 0 0 1 270 0 0 0;
#X text 257 296 Dry / Wet;
#X msg 349 145 100;
#X obj 349 185 send dw;
#X obj 425 145 param dry-wet 1;
#X obj 49 447 drywet;
#X msg 349 74 100;
#X connect 1 0 8 0;
#X connect 1 0 20 0;
#X connect 1 1 8 1;
#X connect 1 1 20 1;
#X connect 3 0 9 0;
#X connect 3 0 8 2;
#X connect 5 0 21 0;
#X connect 5 0 17 0;
#X connect 7 0 5 0;
#X connect 7 0 14 0;
#X connect 8 0 20 2;
#X connect 8 1 20 3;
#X connect 8 2 2 1;
#X connect 8 3 2 0;
#X connect 9 0 10 0;
#X connect 10 0 3 0;
#X connect 11 0 6 0;
#X connect 14 0 20 4;
#X connect 17 0 18 0;
#X connect 17 0 19 0;
#X connect 19 0 18 0;
#X connect 20 0 4 0;
#X connect 20 1 4 1;
#X connect 21 0 6 0;
#X connect 21 0 11 0;
