#N canvas 827 239 527 327 12;
#X obj 24 76 +~, f 5;
#X obj 24 111 /~, f 5;
#X obj 68 76 nbx 2 18 -1e+37 1e+37 0 1 empty empty empty 0 -8 0 10 #e4e4e4 #373737 #373737 2 256;
#X obj 128 76 -~;
#X obj 128 111 *~;
#X obj 24 177 -~;
#X obj 128 177 +~;
#X obj 249 24 loadbang;
#X obj 24 24 inlet~ left;
#X obj 99 24 inlet~ right;
#X obj 176 24 inlet width;
#X obj 24 236 outlet~ left;
#X obj 128 236 outlet~ right;
#X obj 74 274 outlet~ mid;
#X obj 201 274 outlet~ side;
#X connect 0 0 1 0;
#X connect 1 0 5 0;
#X connect 1 0 6 0;
#X connect 1 0 13 0;
#X connect 2 0 1 1;
#X connect 3 0 4 0;
#X connect 4 0 5 1;
#X connect 4 0 6 1;
#X connect 4 0 14 0;
#X connect 5 0 11 0;
#X connect 6 0 12 0;
#X connect 7 0 2 0;
#X connect 8 0 0 0;
#X connect 8 0 3 1;
#X connect 9 0 0 1;
#X connect 9 0 3 0;
#X connect 10 0 4 1;
