#N canvas 827 239 625 322 12;
#X obj 550 0 cnv 15 75 322 empty empty empty 20 12 0 14 #ebebeb #373737 0;
#X obj 261 334 adc~;
#X obj 28 250 hsl 150 25 0 200 0 0 low-width.hsl.s low-width.hsl.r empty -2 -8 0 10 #e4e4e4 #4d4d4d #373737 0 1;
#X obj 250 797 dac~;
#X obj 574 15 bng 25 250 50 0 empty empty Reset -3 40 0 12 #e4e4e4 #4d4d4d #373737;
#X obj 200 75 scope~ 150 150 2 3 256 -1 1 0 0 0 0 77 108 77 228 255 228 183 210 183 0 empty;
#X obj 375 75 scope~ 150 150 2 3 256 -1 1 0 0 0 0 77 77 108 228 228 255 183 183 210 0 empty;
#X obj 128 15 hsl 128 25 50 500 0 0 low-split.hsl.s low-split.hsl.r empty -2 -8 0 10 #e4e4e4 #4d4d4d #373737 0 1;
#X obj 306 15 hsl 128 25 1500 7500 0 0 high-split.hsl.s high-split.hsl.r empty -2 -8 0 10 #e4e4e4 #4d4d4d #373737 0 1;
#X obj 163 48 nbx 4 18 50 500 0 0 low-split.nbx.s low-split.nbx.r Hz 60 10 0 12 #e4e4e4 #373737 #373737 0 256;
#X obj 336 49 nbx 4 18 1500 7500 0 0 high-split.nbx.s high-split.nbx.r Hz 60 10 0 12 #e4e4e4 #373737 #373737 0 256;
#X obj 203 250 hsl 150 25 0 200 0 0 mid-width.hsl.s mid-width.hsl.r empty -2 -8 0 10 #e4e4e4 #4d4d4d #373737 0 1;
#X obj 378 250 hsl 150 25 0 200 0 0 high-width.hsl.s high-width.hsl.r empty -2 -8 0 10 #e4e4e4 #4d4d4d #373737 0 1;
#X obj 649 199 loadbang;
#X obj 80 283 nbx 3 18 0 200 0 0 low-width.nbx.s low-width.nbx.r % 50 10 0 12 #e4e4e4 #373737 #373737 0 256;
#X obj 255 285 nbx 3 18 0 200 0 0 mid-width.nbx.s mid-width.nbx.r % 50 10 0 12 #e4e4e4 #373737 #373737 0 256;
#X obj 430 285 nbx 3 18 0 200 0 0 high-width.nbx.s high-width.nbx.r % 50 10 0 12 #e4e4e4 #373737 #373737 0 256;
#X obj 24 384 lowpass~;
#X obj 387 377 highpass~;
#X obj 107 384 lowpass~;
#X obj 469 377 highpass~;
#X obj 25 75 scope~ 150 150 2 3 256 -1 1 0 0 0 0 108 77 77 255 228 228 210 183 183 0 empty;
#X obj 239 422 -~;
#X obj 239 465 -~;
#X obj 287 422 -~;
#X obj 287 465 -~;
#X obj 24 513 wico;
#X obj 239 513 wico;
#X obj 387 513 wico;
#X text 25 74 L;
#X text 162 74 R;
#X text 200 74 L;
#X text 337 74 R;
#X text 375 74 L;
#X text 512 74 R;
#X obj 562 250 knob 50 0 100 0 100 dw.know.s dw.knob.r #E4E4E4 #B7B7B7 #4D4D4D 1 0 0 0 1 270 0 0 0;
#X text 556 300 Dry / Wet;
#X obj 250 752 drywet;
#X obj 25 232 cnv 15 149 10 empty cml empty 20 12 0 14 #e4e4e4 #373737 0;
#X obj 200 232 cnv 15 149 10 empty cmm empty 20 12 0 14 #e4e4e4 #373737 0;
#X obj 375 232 cnv 15 149 10 empty cmh empty 20 12 0 14 #e4e4e4 #373737 0;
#X obj 515 577 avg~;
#X obj 515 617 clip 0 0.5;
#X obj 515 653 !- 0.5;
#X obj 515 543 metro 100;
#X obj 515 484 tgl 25 1 empty empty empty 17 7 0 10 #e4e4e4 #4d4d4d #373737 1 1;
#X obj 515 688 * 300;
#X msg 515 770 \; cml vis_size \$1 \$2;
#X obj 515 728 pack 0 10;
#X obj 649 574 avg~;
#X obj 649 614 clip 0 0.5;
#X obj 649 650 !- 0.5;
#X obj 649 685 * 300;
#X obj 649 725 pack 0 10;
#X msg 649 767 \; cmm vis_size \$1 \$2;
#X obj 799 574 avg~;
#X obj 799 614 clip 0 0.5;
#X obj 799 650 !- 0.5;
#X obj 799 685 * 300;
#X obj 799 725 pack 0 10;
#X msg 799 767 \; cmh vis_size \$1 \$2;
#N canvas 0 50 450 300 parameters 0;
#X obj 99 -1 inlet reset;
#X text 18 91 dry-wet;
#X obj 248 172 s dw.knob.r;
#X obj 248 129 param dry-wet;
#X obj 151 129 initmess 100;
#X obj 149 49 loadbang;
#X obj 360 129 daw_storage dry-wet;
#X obj 296 92 r dw.knob.s;
#X obj 152 315 initmess 100;
#X obj 152 227 loadbang;
#X msg 676 276 set \$1;
#X text 24 226 low-width;
#X obj 299 276 r low-width.nbx.s;
#X obj 249 315 param low-width;
#X obj 249 350 s low-width.nbx.r;
#X obj 361 315 daw_storage low-width;
#X obj 532 227 r low-width.hsl.s;
#X obj 532 315 s low-width.nbx.r;
#X obj 676 315 s low-width.hsl.r;
#X obj 676 227 r low-width.nbx.s;
#X obj 152 487 initmess 100;
#X obj 152 399 loadbang;
#X msg 676 448 set \$1;
#X text 24 398 mid-width;
#X obj 299 448 r mid-width.nbx.s;
#X obj 249 487 param mid-width;
#X obj 361 487 daw_storage mid-width;
#X obj 249 522 s mid-width.nbx.r;
#X obj 532 399 r mid-width.hsl.s;
#X obj 532 487 s mid-width.nbx.r;
#X obj 676 399 r mid-width.nbx.s;
#X obj 676 487 s mid-width.hsl.r;
#X obj 152 662 initmess 100;
#X obj 152 574 loadbang;
#X msg 676 623 set \$1;
#X text 24 573 high-width;
#X obj 299 623 r high-width.nbx.s;
#X obj 249 662 param high-width;
#X obj 249 697 s high-width.nbx.r;
#X obj 361 662 daw_storage high-width;
#X obj 532 574 r high-width.hsl.s;
#X obj 532 662 s high-width.nbx.r;
#X obj 676 574 r high-width.nbx.s;
#X obj 676 662 s high-width.hsl.r;
#X obj 152 749 loadbang;
#X msg 676 798 set \$1;
#X text 24 748 low-split;
#X obj 152 837 initmess 150;
#X obj 299 798 r low-split.nbx.s;
#X obj 249 837 param low-split;
#X obj 361 837 daw_storage low-split;
#X obj 249 872 s low-split.nbx.r;
#X obj 532 749 r low-split.hsl.s;
#X obj 532 837 s low-split.nbx.r;
#X obj 676 749 r low-split.nbx.s;
#X obj 676 837 s low-split.hsl.r;
#X obj 152 920 loadbang;
#X msg 676 969 set \$1;
#X text 24 919 high-split;
#X obj 152 1008 initmess 4500;
#X obj 299 969 r high-split.nbx.s;
#X obj 249 1008 param high-split;
#X obj 257 1043 s high-split.nbx.r;
#X obj 361 1008 daw_storage high-split;
#X obj 532 920 r high-split.hsl.s;
#X obj 532 1008 s high-split.nbx.r;
#X obj 676 920 r high-split.nbx.s;
#X obj 676 1008 s high-split.hsl.r;
#X obj 532 276 int;
#X obj 532 448 int;
#X obj 532 623 int;
#X obj 532 798 int;
#X obj 532 969 int;
#X obj 248 49 initmess create \, range 0 100 \, mode 1;
#X obj 249 227 initmess create \, range 0 200 \, mode 1;
#X obj 249 399 initmess create \, range 0 200 \, mode 1;
#X obj 249 574 initmess create \, range 0 200 \, mode 1;
#X obj 249 749 initmess create \, range 50 500 \, mode 1;
#X obj 249 920 initmess create \, range 1500 7500 \, mode 1;
#X connect 0 0 4 0;
#X connect 0 0 8 0;
#X connect 0 0 20 0;
#X connect 0 0 32 0;
#X connect 0 0 47 0;
#X connect 0 0 59 0;
#X connect 3 0 2 0;
#X connect 4 0 2 0;
#X connect 5 0 4 0;
#X connect 6 0 2 0;
#X connect 7 0 3 0;
#X connect 7 0 6 0;
#X connect 8 0 14 0;
#X connect 9 0 8 0;
#X connect 10 0 18 0;
#X connect 12 0 13 0;
#X connect 12 0 15 0;
#X connect 13 0 14 0;
#X connect 15 0 14 0;
#X connect 16 0 68 0;
#X connect 19 0 10 0;
#X connect 20 0 27 0;
#X connect 21 0 20 0;
#X connect 22 0 31 0;
#X connect 24 0 25 0;
#X connect 24 0 26 0;
#X connect 25 0 27 0;
#X connect 26 0 27 0;
#X connect 28 0 69 0;
#X connect 30 0 22 0;
#X connect 32 0 38 0;
#X connect 33 0 32 0;
#X connect 34 0 43 0;
#X connect 36 0 37 0;
#X connect 36 0 39 0;
#X connect 37 0 38 0;
#X connect 39 0 38 0;
#X connect 40 0 70 0;
#X connect 42 0 34 0;
#X connect 44 0 47 0;
#X connect 45 0 55 0;
#X connect 47 0 51 0;
#X connect 48 0 49 0;
#X connect 48 0 50 0;
#X connect 49 0 51 0;
#X connect 50 0 51 0;
#X connect 52 0 71 0;
#X connect 54 0 45 0;
#X connect 56 0 59 0;
#X connect 57 0 67 0;
#X connect 59 0 62 0;
#X connect 60 0 61 0;
#X connect 60 0 63 0;
#X connect 61 0 62 0;
#X connect 63 0 62 0;
#X connect 64 0 72 0;
#X connect 66 0 57 0;
#X connect 68 0 17 0;
#X connect 69 0 29 0;
#X connect 70 0 41 0;
#X connect 71 0 53 0;
#X connect 72 0 65 0;
#X connect 73 0 3 0;
#X connect 74 0 13 0;
#X connect 75 0 25 0;
#X connect 76 0 37 0;
#X connect 77 0 49 0;
#X connect 78 0 61 0;
#X restore 649 74 pd parameters;
#X obj 287 624 sum~;
#X obj 339 624 sum~;
#X obj 38 88 pic 0 diag_cross_125_r.png empty empty 0 0;
#X obj 213 88 pic 0 diag_cross_125_g.png empty empty 0 0;
#X obj 388 88 pic 0 diag_cross_125_b.png empty empty 0 0;
#X obj 662 283 s pd;
#X msg 662 248 pluginmode light;
#X connect 1 0 17 0;
#X connect 1 0 18 0;
#X connect 1 0 22 0;
#X connect 1 0 37 0;
#X connect 1 1 19 0;
#X connect 1 1 20 0;
#X connect 1 1 24 0;
#X connect 1 1 37 1;
#X connect 4 0 61 0;
#X connect 9 0 19 1;
#X connect 9 0 17 1;
#X connect 10 0 20 1;
#X connect 10 0 18 1;
#X connect 13 0 35 0;
#X connect 13 0 44 0;
#X connect 13 0 68 0;
#X connect 14 0 26 2;
#X connect 15 0 27 2;
#X connect 16 0 28 2;
#X connect 17 0 23 1;
#X connect 17 0 26 0;
#X connect 18 0 22 1;
#X connect 18 0 28 0;
#X connect 19 0 25 1;
#X connect 19 0 26 1;
#X connect 20 0 24 1;
#X connect 20 0 28 1;
#X connect 22 0 23 0;
#X connect 23 0 27 0;
#X connect 24 0 25 0;
#X connect 25 0 27 1;
#X connect 26 0 62 0;
#X connect 26 1 63 0;
#X connect 26 2 21 1;
#X connect 26 3 21 0;
#X connect 26 3 41 0;
#X connect 27 0 62 0;
#X connect 27 1 63 0;
#X connect 27 2 5 1;
#X connect 27 3 5 0;
#X connect 27 3 49 0;
#X connect 28 0 62 0;
#X connect 28 1 63 0;
#X connect 28 2 6 1;
#X connect 28 3 6 0;
#X connect 28 3 55 0;
#X connect 35 0 37 4;
#X connect 37 0 3 0;
#X connect 37 1 3 1;
#X connect 41 0 42 0;
#X connect 42 0 43 0;
#X connect 43 0 46 0;
#X connect 44 0 41 0;
#X connect 44 0 49 0;
#X connect 44 0 55 0;
#X connect 45 0 44 0;
#X connect 46 0 48 0;
#X connect 48 0 47 0;
#X connect 49 0 50 0;
#X connect 50 0 51 0;
#X connect 51 0 52 0;
#X connect 52 0 53 0;
#X connect 53 0 54 0;
#X connect 55 0 56 0;
#X connect 56 0 57 0;
#X connect 57 0 58 0;
#X connect 58 0 59 0;
#X connect 59 0 60 0;
#X connect 62 0 37 2;
#X connect 63 0 37 3;
#X connect 68 0 67 0;
