#N canvas 827 239 327 322 12;
#X obj 250 0 cnv 15 75 322 empty empty empty 20 12 0 14 #ebebeb #373737 0;
#X obj 49 349 adc~;
#X obj 25 24 scope~ 200 200 2 3 256 -1 1 0 0 0 0 77 77 77 228 228 228 183 183 183 0 sc;
#X obj 28 250 hsl 200 25 0 200 0 0 width.hsl.s width.hsl.r empty -2 -8 0 10 #e4e4e4 #4d4d4d #373737 0 1;
#X obj 49 500 dac~;
#X obj 280 24 bng 25 250 50 0 empty empty Reset -3 40 0 12 #e4e4e4 #4d4d4d #373737;
#X obj 374 213 loadbang;
#X obj 49 400 wico;
#X obj 105 285 nbx 3 18 0 200 0 0 width.nbx.s width.nbx.r % 50 10 0 12 #e4e4e4 #373737 #373737 0 256;
#X text 24 22 L;
#X text 209 22 R;
#X obj 263 247 knob 50 0 100 0 100 dw.knob.s dw.knob.r #E4E4E4 #B7B7B7 #4D4D4D 1 0 0 0 1 270 0 0 0;
#X text 257 296 Dry / Wet;
#X obj 49 447 drywet;
#X obj 25 232 cnv 15 200 10 empty cm empty 20 12 0 14 #e4e4e4 #373737 0;
#X msg 263 594 \; cm vis_size \$1 \$2;
#X obj 263 401 avg~;
#X obj 263 512 * 400;
#X obj 263 441 clip 0 0.5;
#X obj 263 477 !- 0.5;
#X obj 263 367 metro 100;
#X obj 349 297 tgl 25 1 empty empty empty 17 7 0 10 #e4e4e4 #4d4d4d #373737 1 1;
#X obj 263 548 pack 0 10;
#N canvas 0 50 450 300 parameters 0;
#X obj 248 314 param width;
#X obj 151 314 initmess 100;
#X obj 360 314 daw_storage width;
#X text 23 225 width;
#X obj 99 -1 inlet reset;
#X obj 151 226 loadbang;
#X msg 600 275 set \$1;
#X obj 248 349 s width.nbx.r;
#X obj 298 275 r width.nbx.s;
#X obj 506 226 r width.hsl.s;
#X obj 506 314 s width.nbx.r;
#X obj 600 226 r width.nbx.s;
#X obj 600 314 s width.hsl.r;
#X text 18 91 dry-wet;
#X obj 248 172 s dw.knob.r;
#X obj 248 129 param dry-wet;
#X obj 151 129 initmess 100;
#X obj 149 49 loadbang;
#X obj 360 129 daw_storage dry-wet;
#X obj 296 92 r dw.knob.s;
#X obj 248 49 initmess create \, range 0 100 \, mode 2;
#X obj 248 226 initmess create \, range 0 200 \, mode 2;
#X connect 0 0 7 0;
#X connect 1 0 7 0;
#X connect 2 0 7 0;
#X connect 4 0 1 0;
#X connect 4 0 16 0;
#X connect 5 0 1 0;
#X connect 6 0 12 0;
#X connect 8 0 0 0;
#X connect 8 0 2 0;
#X connect 9 0 10 0;
#X connect 11 0 6 0;
#X connect 15 0 14 0;
#X connect 16 0 14 0;
#X connect 17 0 16 0;
#X connect 18 0 14 0;
#X connect 19 0 15 0;
#X connect 19 0 18 0;
#X connect 20 0 15 0;
#X connect 21 0 0 0;
#X restore 374 49 pd parameters;
#X connect 1 0 7 0;
#X connect 1 0 13 0;
#X connect 1 1 7 1;
#X connect 1 1 13 1;
#X connect 3 0 7 2;
#X connect 5 0 23 0;
#X connect 6 0 11 0;
#X connect 6 0 20 0;
#X connect 7 0 13 2;
#X connect 7 1 13 3;
#X connect 7 2 2 1;
#X connect 7 3 2 0;
#X connect 7 3 16 0;
#X connect 11 0 13 4;
#X connect 13 0 4 0;
#X connect 13 1 4 1;
#X connect 16 0 18 0;
#X connect 17 0 22 0;
#X connect 18 0 19 0;
#X connect 19 0 17 0;
#X connect 20 0 16 0;
#X connect 21 0 20 0;
#X connect 22 0 15 0;
