#N canvas 827 239 527 327 12;
#X obj 49 349 adc~;
#X obj 24 49 scope~ 200 200 2 3 256 -1 1 0 0 0 0 77 77 77 228 228 228 183 183 183 0 empty;
#X obj 15 409 +~, f 5;
#X obj 15 444 /~, f 5;
#X obj 59 409 nbx 2 18 -1e+37 1e+37 0 1 empty empty empty 0 -8 0 10 #e4e4e4 #373737 #373737 2 256;
#X obj 119 409 -~;
#X obj 22 274 hsl 200 25 0 2 0 1 empty wl empty -2 -8 0 10 #e4e4e4 #4d4d4d #373737 9950 1;
#X obj 119 444 *~;
#X obj 59 565 dac~;
#X obj 242 274 bng 25 250 50 0 empty empty Reset 33 14 0 10 #e4e4e4 #4d4d4d #373737;
#X msg 552 328 1;
#X obj 549 361 send wl;
#X text 24 24 phase scope, f 29;
#X obj 15 510 -~;
#X obj 119 510 +~;
#X obj 552 274 loadbang;
#X connect 0 0 2 0;
#X connect 0 0 5 1;
#X connect 0 1 2 1;
#X connect 0 1 5 0;
#X connect 2 0 3 0;
#X connect 3 0 1 1;
#X connect 3 0 13 0;
#X connect 3 0 14 0;
#X connect 4 0 3 1;
#X connect 5 0 7 0;
#X connect 6 0 7 1;
#X connect 7 0 1 0;
#X connect 7 0 13 1;
#X connect 7 0 14 1;
#X connect 9 0 10 0;
#X connect 10 0 11 0;
#X connect 13 0 8 0;
#X connect 14 0 8 1;
#X connect 15 0 9 0;
