#N canvas 827 239 327 322 12;
#X obj 250 0 cnv 15 75 322 empty empty empty 20 12 0 14 #ebebeb #373737 0;
#X obj 49 349 adc~;
#X obj 24 24 scope~ 200 200 2 3 256 -1 1 0 0 0 0 77 77 77 228 228 228 183 183 183 0 empty;
#X obj 27 247 hsl 200 25 0 2 0 1 empty wl empty -2 -8 0 10 #e4e4e4 #4d4d4d #373737 9950 1;
#X obj 49 500 dac~;
#X obj 280 24 bng 25 250 50 0 empty empty Reset -4 40 0 12 #e4e4e4 #4d4d4d #373737;
#X msg 349 74 1;
#X obj 346 114 send wl;
#X obj 351 24 loadbang;
#X obj 49 400 wico;
#X obj 103 287 nbx 4 18 -1e+37 1e+37 0 0 empty empty empty 0 -8 0 10 #e4e4e4 #373737 #373737 0 256;
#X msg 169 284 set \$1;
#X obj 425 74 param width 1;
#X text 24 23 L;
#X text 209 23 R;
#X obj 263 249 knob 50 0 100 0 100 empty dw #E4E4E4 #B7B7B7 #4D4D4D 1 0 0 0 1 270 0 0 0;
#X obj 782 152 knob 50 0 100 0 100 empty empty #E4E4E4 #B7B7B7 #4D4D4D 1 0 0 0 1 270 0 0 0;
#X text 257 299 Dry / Wet;
#X msg 349 145 100;
#X obj 349 185 send dw;
#X obj 425 145 param dry-wet 1;
#X obj 49 447 drywet;
#X connect 1 0 9 0;
#X connect 1 0 21 0;
#X connect 1 1 9 1;
#X connect 1 1 21 1;
#X connect 3 0 10 0;
#X connect 3 0 9 2;
#X connect 5 0 6 0;
#X connect 5 0 18 0;
#X connect 6 0 7 0;
#X connect 6 0 12 0;
#X connect 8 0 5 0;
#X connect 8 0 15 0;
#X connect 9 0 21 2;
#X connect 9 1 2 1;
#X connect 9 2 21 3;
#X connect 9 3 2 0;
#X connect 10 0 11 0;
#X connect 11 0 3 0;
#X connect 12 0 7 0;
#X connect 15 0 21 4;
#X connect 18 0 19 0;
#X connect 18 0 20 0;
#X connect 20 0 19 0;
#X connect 21 0 4 0;
#X connect 21 1 4 1;
