#N canvas 827 239 625 322 12;
#X obj 550 0 cnv 15 75 322 empty empty empty 20 12 0 14 #ebebeb #373737 0;
#X obj 261 334 adc~;
#X obj 28 250 hsl 150 25 0 200 0 1 empty wl empty -2 -8 0 10 #e4e4e4 #4d4d4d #373737 7450 1;
#X obj 250 797 dac~;
#X obj 574 15 bng 25 250 50 0 empty empty Reset -3 40 0 12 #e4e4e4 #4d4d4d #373737;
#X obj 742 113 send wl;
#X obj 200 75 scope~ 150 150 2 3 256 -1 1 0 0 0 0 77 108 77 228 255 228 183 210 183 0 empty;
#X obj 375 75 scope~ 150 150 2 3 256 -1 1 0 0 0 0 77 77 108 228 228 255 183 183 210 0 empty;
#X obj 128 15 hsl 128 25 50 500 0 1 empty flp empty -2 -8 0 10 #e4e4e4 #4d4d4d #373737 2822 1;
#X obj 306 15 hsl 128 25 1500 7500 0 1 empty fhp empty -2 -8 0 10 #e4e4e4 #4d4d4d #373737 6350 1;
#X obj 163 48 nbx 4 18 50 500 0 1 empty empty empty 0 -8 0 10 #e4e4e4 #373737 #373737 150 256;
#X obj 336 49 nbx 4 18 1500 7500 0 1 empty empty empty 0 -8 0 10 #e4e4e4 #373737 #373737 4500 256;
#X obj 203 250 hsl 150 25 0 200 0 1 empty wm empty -2 -8 0 10 #e4e4e4 #4d4d4d #373737 7450 1;
#X obj 870 113 send wm;
#X obj 378 250 hsl 150 25 0 200 0 1 empty wh empty -2 -8 0 10 #e4e4e4 #4d4d4d #373737 7450 1;
#X obj 1005 113 send wh;
#X msg 677 167 150;
#X obj 677 208 send flp;
#X msg 853 167 4500;
#X obj 853 206 send fhp;
#X obj 677 24 loadbang;
#X obj 80 283 nbx 3 18 0 200 0 1 empty empty % 49 10 0 12 #e4e4e4 #373737 #373737 100 256;
#X obj 255 285 nbx 3 18 0 200 0 1 empty empty % 49 10 0 12 #e4e4e4 #373737 #373737 100 256;
#X obj 430 285 nbx 3 18 0 200 0 1 empty empty % 49 10 0 12 #e4e4e4 #373737 #373737 100 256;
#X obj 24 384 lowpass~;
#X obj 387 377 highpass~;
#X obj 107 384 lowpass~;
#X obj 469 377 highpass~;
#X obj 25 75 scope~ 150 150 2 3 256 -1 1 0 0 0 0 108 77 77 255 228 228 210 183 183 0 empty;
#X obj 239 422 -~;
#X obj 239 465 -~;
#X obj 287 422 -~;
#X obj 287 465 -~;
#X obj 174 674 +~;
#X obj 217 707 +~;
#X obj 327 674 +~;
#X obj 304 707 +~;
#X obj 742 66 param low-width 1;
#X obj 870 66 param mid-width 1;
#X obj 1005 66 param high-width 1;
#X obj 722 167 param low-split 1;
#X obj 921 167 param high-split 1;
#X msg 226 48 set \$1;
#X msg 399 49 set \$1;
#X msg 137 283 set \$1;
#X msg 317 285 set \$1;
#X msg 493 285 set \$1;
#X obj 24 513 wico;
#X obj 239 513 wico;
#X obj 387 513 wico;
#X text 25 74 L;
#X text 162 74 R;
#X text 200 74 L;
#X text 337 74 R;
#X text 375 74 L;
#X text 512 74 R;
#X obj 562 250 knob 50 0 100 0 100 empty dw #E4E4E4 #B7B7B7 #4D4D4D 1 0 0 0 1 270 0 0 0;
#X text 556 300 Dry / Wet;
#X obj 250 752 drywet;
#X msg 677 250 100;
#X obj 677 290 send dw;
#X obj 753 250 param dry-wet 1;
#X msg 677 66 100;
#X connect 1 0 24 0;
#X connect 1 0 25 0;
#X connect 1 0 29 0;
#X connect 1 0 58 0;
#X connect 1 1 26 0;
#X connect 1 1 27 0;
#X connect 1 1 31 0;
#X connect 1 1 58 1;
#X connect 2 0 21 0;
#X connect 2 0 47 2;
#X connect 4 0 62 0;
#X connect 4 0 16 0;
#X connect 4 0 18 0;
#X connect 4 0 59 0;
#X connect 8 0 10 0;
#X connect 8 0 24 1;
#X connect 8 0 26 1;
#X connect 9 0 11 0;
#X connect 9 0 25 1;
#X connect 9 0 27 1;
#X connect 10 0 42 0;
#X connect 11 0 43 0;
#X connect 12 0 22 0;
#X connect 12 0 48 2;
#X connect 14 0 23 0;
#X connect 14 0 49 2;
#X connect 16 0 17 0;
#X connect 16 0 40 0;
#X connect 18 0 19 0;
#X connect 18 0 41 0;
#X connect 20 0 4 0;
#X connect 21 0 44 0;
#X connect 22 0 45 0;
#X connect 23 0 46 0;
#X connect 24 0 30 1;
#X connect 24 0 47 0;
#X connect 25 0 29 1;
#X connect 25 0 49 0;
#X connect 26 0 32 1;
#X connect 26 0 47 1;
#X connect 27 0 31 1;
#X connect 27 0 49 1;
#X connect 29 0 30 0;
#X connect 30 0 48 0;
#X connect 31 0 32 0;
#X connect 32 0 48 1;
#X connect 33 0 34 0;
#X connect 34 0 58 2;
#X connect 35 0 36 0;
#X connect 36 0 58 3;
#X connect 37 0 5 0;
#X connect 38 0 13 0;
#X connect 39 0 15 0;
#X connect 40 0 17 0;
#X connect 41 0 19 0;
#X connect 42 0 8 0;
#X connect 43 0 9 0;
#X connect 44 0 2 0;
#X connect 45 0 12 0;
#X connect 46 0 14 0;
#X connect 47 0 33 0;
#X connect 47 1 28 1;
#X connect 47 2 35 0;
#X connect 47 3 28 0;
#X connect 48 0 33 1;
#X connect 48 1 6 1;
#X connect 48 2 35 1;
#X connect 48 3 6 0;
#X connect 49 0 34 1;
#X connect 49 1 7 1;
#X connect 49 2 36 1;
#X connect 49 3 7 0;
#X connect 56 0 58 4;
#X connect 58 0 3 0;
#X connect 58 1 3 1;
#X connect 59 0 60 0;
#X connect 59 0 61 0;
#X connect 61 0 60 0;
#X connect 62 0 5 0;
#X connect 62 0 13 0;
#X connect 62 0 15 0;
#X connect 62 0 37 0;
#X connect 62 0 38 0;
#X connect 62 0 39 0;
