#N canvas 827 239 527 327 12;
#X obj 24 76 +~, f 5;
#X obj 116 76 -~;
#X obj 116 148 *~;
#X obj 24 209 -~;
#X obj 116 209 +~;
#X obj 24 24 inlet~ left;
#X obj 99 24 inlet~ right;
#X obj 200 24 inlet width;
#X obj 24 256 outlet~ left;
#X obj 116 256 outlet~ right;
#X obj 222 256 outlet~ mid;
#X obj 325 256 outlet~ side;
#X obj 24 111 /~ 2, f 5;
#X obj 200 76 / 100;
#X obj 116 111 /~ 2, f 5;
#X connect 0 0 12 0;
#X connect 1 0 14 0;
#X connect 2 0 3 1;
#X connect 2 0 4 1;
#X connect 2 0 11 0;
#X connect 3 0 8 0;
#X connect 4 0 9 0;
#X connect 5 0 0 0;
#X connect 5 0 1 1;
#X connect 6 0 0 1;
#X connect 6 0 1 0;
#X connect 7 0 13 0;
#X connect 12 0 3 0;
#X connect 12 0 4 0;
#X connect 12 0 10 0;
#X connect 13 0 2 1;
#X connect 14 0 2 0;
